# xmcd
#
# Track frame offsets:
# 150
# 11156
# 23305
# 38398
# 55115
# 66576
# 77546
# 96360
# 106630
# 122802
# 133815
# 150012
#
# Disc length: 2177 seconds
#
#
# Revision: 0
# Processed by: cddbd v1.5.2PL0 Copyright (c) Steve Scherf et al.
# Submitted via: FreeRIP 2.951 
#
DISCID=84087f0c
DTITLE=Iron Horse Bluegrass Band - The Legend of Cattail Swamp
DYEAR=2004
DGENRE=Bluegrass
TTITLE0=The Moon Saw Me Crying
TTITLE1=Next Sunday Darling Is My Birthday
TTITLE2=
TTITLE3=Blue Yodel #7
TTITLE4=Preachin' Prayin' Singin'
TTITLE5=Somehow Tonght
TTITLE6=Beautiful Rose
TTITLE7=Poison Love
TTITLE8=Gospel Plow
TTITLE9=Why Don't You Tell Me So
TTITLE10=The Legend of Cattail Swamp
TTITLE11=You Are My Flower
EXTD=
EXTT0=
EXTT1=
EXTT2=
EXTT3=
EXTT4=
EXTT5=
EXTT6=
EXTT7=
EXTT8=
EXTT9=
EXTT10=
EXTT11=
PLAYORDER=
